<svg xmlns="http://www.w3.org/2000/svg" viewBox="0 0 32 32" width="32" height="32">
  <defs>
    <linearGradient id="bg" x1="0%" y1="0%" x2="100%" y2="100%">
      <stop offset="0%" style="stop-color:#3498db"/>
      <stop offset="100%" style="stop-color:#2980b9"/>
    </linearGradient>
  </defs>
  
  <!-- Background -->
  <rect width="32" height="32" rx="6" fill="url(#bg)"/>
  
  <!-- Traditional Chef's Hat Band -->
  <rect x="9" y="21" width="14" height="3" rx="1" fill="white"/>
  
  <!-- Traditional Chef's Hat Toque (tall part) -->
  <ellipse cx="16" cy="21" rx="7" ry="1.5" fill="#e9ecef"/>
  <path d="M 9 21 Q 9 12 12 8 Q 14 6 16 5.5 Q 18 6 20 8 Q 23 12 23 21 Z" fill="white"/>
  
  <!-- Chef hat pleats (simplified) -->
  <path d="M 12 21 Q 12 15 12.5 12" stroke="#dee2e6" stroke-width="0.5" fill="none" opacity="0.6"/>
  <path d="M 16 21 Q 16 14 15.8 11" stroke="#dee2e6" stroke-width="0.5" fill="none" opacity="0.6"/>
  <path d="M 20 21 Q 20 15 19.5 12" stroke="#dee2e6" stroke-width="0.5" fill="none" opacity="0.6"/>
  
  <!-- Simple speech bubble -->
  <ellipse cx="24" cy="10" rx="5" ry="3.5" fill="#ffc107"/>
  <polygon points="20,12 22,14 21,15" fill="#ffc107"/>
  <circle cx="22" cy="9" r="0.7" fill="white"/>
  <circle cx="24" cy="9" r="0.7" fill="white"/>
  <circle cx="26" cy="9" r="0.7" fill="white"/>
  <circle cx="23" cy="11" r="0.7" fill="white"/>
  <circle cx="25" cy="11" r="0.7" fill="white"/>
  
  <!-- Sparkle -->
  <path d="M 6,6 L 7,8 L 9,7 L 7,9 L 6,6 Z" fill="#ffc107" opacity="0.8"/>
</svg>